<svg width="300" height="205" xmlns="http://www.w3.org/2000/svg">
 <!---->
 <defs>
  <!---->
  <linearGradient y2="0%" x2="100%" y1="0%" x1="0%" id="c4b462c0-f82f-4d48-9b08-e795b70de769" gradientTransform="rotate(25)">
   <stop stop-color="#CEAFEB" offset="0%"/>
   <stop stop-color="#EFDFB4" offset="100%"/>
  </linearGradient>
 </defs>
 <defs>
  <!---->
 </defs>

 <defs>
  <!---->
 </defs>
 <g>
  <title>background</title>
  <rect fill="none" id="canvas_background" height="207" width="302" y="-1" x="-1"/>
 </g>
 <g>
  <title>Layer 1</title>
  <g id="svg_5">
   <g transform="matrix(3.8269059560931398,0,0,3.8269059560931398,18.124816045018115,155.19282033416332) " fill="#000000" id="7c8ae2bc-bee4-4aaf-b71d-fbb9c020fb1b">
    <path id="svg_2" d="m9.51,-6.782118c0,-2.69 -1.64,-4.93 -4.89,-4.93l-3.99,0l-0.14,0.63l1.33,0.27l0,8l-1.33,0.41l0,0.49l4.13,0c3.14,0 4.89,-2.18 4.89,-4.87zm-5.13,-4.16c2.58,0 3.66,1.64 3.66,4.16c0,2.52 -1.35,4.1 -3.66,4.1l-1.16,0l0,-8.26l1.16,0zm12.85,9.03l0.14,-0.64l-1,-0.24l0,-4.3c0,-1.68 -1.17,-2.23 -2.62,-2.23c-0.95,0 -1.78,0.3 -2.51,0.62l0,1.82l0.73,0.13l0.39,-1.6c0.44,-0.15 0.88,-0.2 1.32,-0.2c0.78,0 1.43,0.4 1.43,1.45l0,1.14c-1.01,0.12 -1.81,0.27 -2.72,0.51c-1.22,0.32 -1.62,0.88 -1.62,1.82c0,1.17 0.86,1.83 1.86,1.83c0.81,0 1.92,-0.57 2.48,-1.24l0,1.13l2.12,0zm-5.06,-1.83c0,-0.58 0.26,-1.08 1.14,-1.32c0.61,-0.17 1.19,-0.24 1.8,-0.31l0,1.6c-0.34,0.49 -1.22,1.09 -1.89,1.09c-0.56,0 -1.05,-0.18 -1.05,-1.06zm13,-3c-0.04,-1.79 -0.78,-2.58 -2.13,-2.58c-0.77,0 -1.79,0.41 -2.42,1.18l0,-1.15l-2.48,0.34l0.07,0.61l1.17,0.23l0,5.36l-1.22,0.42l0,0.42l3.39,0l0.14,-0.67l-1.07,-0.2l0,-4.67c0.37,-0.44 1.21,-0.72 1.95,-0.72c0.89,0 1.34,0.31 1.34,1.71l0,3.71l-1.08,0.42l0,0.42l3.32,0l0.14,-0.63l-1.12,-0.24l0,-3.96zm10.47,4.24c0.75,-0.89 0.72,-2.1 0.72,-3.18l0,-5.13l1.23,-0.41l0,-0.49l-3.82,0l-0.14,0.63l1.33,0.27l0,5.25l0,0.6c0,1.29 -0.09,2.45 -1.35,2.45c-0.23,0 -0.49,-0.04 -0.77,-0.14l-0.5,-2.07l-0.73,0.14l0,2.29c0.66,0.32 1.44,0.56 2.21,0.56c0.69,0 1.33,-0.21 1.82,-0.77zm9.12,0.59l0.14,-0.64l-1.01,-0.24l0,-4.3c0,-1.68 -1.16,-2.23 -2.62,-2.23c-0.95,0 -1.78,0.3 -2.5,0.62l0,1.82l0.72,0.13l0.4,-1.6c0.43,-0.15 0.88,-0.2 1.31,-0.2c0.79,0 1.43,0.4 1.43,1.45l0,1.14c-1.01,0.12 -1.81,0.27 -2.72,0.51c-1.21,0.32 -1.62,0.88 -1.62,1.82c0,1.17 0.87,1.83 1.86,1.83c0.81,0 1.92,-0.57 2.48,-1.24l0,1.13l2.13,0zm-5.07,-1.83c0,-0.58 0.27,-1.08 1.15,-1.32c0.6,-0.17 1.19,-0.24 1.79,-0.31l0,1.6c-0.34,0.49 -1.22,1.09 -1.89,1.09c-0.56,0 -1.05,-0.18 -1.05,-1.06zm8.57,2.42c-0.45,0.84 -0.62,1.43 -1.63,1.43c-0.25,0 -0.53,-0.03 -0.82,-0.1l-0.39,1.16c0.32,0.1 0.61,0.14 0.89,0.14c1.09,0 1.78,-0.67 2.19,-1.41c0.4,-0.72 0.79,-1.74 1.3,-3.01c0.54,-1.36 1.34,-3.07 2.22,-5.25l0.91,-0.41l0,-0.42l-2.49,0l-0.14,0.67l0.86,0.14l-1.94,4.65l-0.08,-0.39l-1.74,-4.3l0.84,-0.35l0,-0.42l-2.99,0l-0.14,0.63l0.96,0.24l2.52,6.17c-0.11,0.3 -0.23,0.59 -0.33,0.83zm11.91,-5.42c-0.04,-1.79 -0.78,-2.58 -2.13,-2.58c-0.77,0 -1.79,0.41 -2.42,1.18l0,-1.15l-2.48,0.34l0.07,0.61l1.17,0.23l0,5.36l-1.22,0.42l0,0.42l3.39,0l0.14,-0.67l-1.07,-0.2l0,-4.67c0.37,-0.44 1.21,-0.72 1.95,-0.72c0.89,0 1.34,0.31 1.34,1.71l0,3.71l-1.08,0.42l0,0.42l3.32,0l0.14,-0.63l-1.12,-0.24l0,-3.96zm8.26,1.08c0,-1.75 -0.5,-3.64 -2.99,-3.64c-1.61,0 -3.38,1.24 -3.38,3.72c0,2.42 1.57,3.8 3.42,3.8c0.94,0 1.93,-0.35 2.84,-1.07l-0.31,-0.53c-0.71,0.46 -1.4,0.69 -2.06,0.69c-1.41,0 -2.49,-1.12 -2.49,-2.97l4.97,0zm-4.93,-0.76c0.05,-1.37 1.01,-2.13 1.89,-2.13c0.84,0 1.64,0.66 1.64,2.13l-3.53,0z"/>
   </g>
   <g transform="matrix(5.935562625477907,0,0,5.935562625477907,102.51549899617675,56.773777701117524) " fill="url(#c4b462c0-f82f-4d48-9b08-e795b70de769)" id="db2a986c-c037-4003-af87-9076bf227810">
    <path id="svg_3" d="m7.969,-6.002612l-1.969,11.844l-0.031,0.156l2.063,0l1.969,-11.844l0.031,-0.156l-2.063,0zm-2.969,1.813l-0.531,0.344l-4,2.5l-0.469,0.281l0,2.126l0.469,0.281l4,2.5l0.531,0.344l0,-2.375l-2.906,-1.813l2.906,-1.813l0,-2.375zm6,0l0,2.375l2.906,1.813l-2.906,1.813l0,2.375l0.531,-0.344l4,-2.5l0.469,-0.281l0,-2.126l-0.469,-0.281l-4,-2.5l-0.531,-0.344z"/>
   </g>
   <g transform="matrix(1.0796145985934242,0,0,1.0796145985934242,52.13293103261722,213.7789706415132) " fill="#000000" id="3f88c418-b333-4c53-93ac-d5ac3e9e17e0">
    <path id="svg_4" d="m14.5,-40.077189l-0.54,0l-0.04,0l-1.47,0l0,0.27c0,0.15 0.08,0.23 0.26,0.25l0.13,0c0.05,0 0.15,0.01 0.29,0.01c0.14,0 0.28,0.02 0.45,0.02l-2.38,7.77c-0.03,0.09 -0.06,0.19 -0.07,0.3c-0.01,0.12 -0.04,0.21 -0.07,0.33c-0.03,-0.12 -0.04,-0.24 -0.07,-0.34l-0.08,-0.29l-2.8,-8.14c-0.03,-0.05 -0.06,-0.11 -0.1,-0.14c-0.04,-0.03 -0.1,-0.04 -0.17,-0.04l-0.2,0c-0.07,0 -0.12,0.01 -0.16,0.06c-0.05,0.04 -0.09,0.07 -0.1,0.12l-2.8,8.15c-0.03,0.1 -0.06,0.18 -0.09,0.29c-0.02,0.1 -0.04,0.21 -0.07,0.34c-0.01,-0.1 -0.04,-0.21 -0.07,-0.34c-0.01,-0.11 -0.04,-0.21 -0.07,-0.3l-2.38,-7.77c0.17,0 0.31,-0.02 0.44,-0.02c0.12,0 0.21,-0.01 0.26,-0.01l0.12,0c0.18,-0.02 0.28,-0.1 0.28,-0.25l0,-0.27l-1.47,0l-0.59,0l-0.6,0l0,0.27c0,0.15 0.09,0.23 0.28,0.25l0.09,0c0.05,0 0.09,0.01 0.16,0.01c0.07,0 0.15,0.02 0.24,0.02l2.95,9.35l0.63,0l2.94,-8.6c0.04,-0.11 0.07,-0.22 0.1,-0.35c0.03,0.13 0.05,0.24 0.1,0.35l2.92,8.6l0.65,0l2.94,-9.35c0.08,0 0.15,-0.02 0.22,-0.02c0.07,0 0.13,-0.01 0.17,-0.01l0.1,0c0.18,-0.02 0.26,-0.1 0.26,-0.25l0,-0.27l-0.59,0zm10.99,2.81c-0.49,0 -0.93,0.1 -1.33,0.27c-0.39,0.17 -0.71,0.41 -0.98,0.71c-0.26,0.31 -0.47,0.68 -0.61,1.1c-0.14,0.42 -0.23,0.88 -0.23,1.38c0,0.59 0.09,1.12 0.24,1.58c0.16,0.47 0.37,0.84 0.65,1.17c0.28,0.32 0.61,0.56 1,0.72c0.4,0.17 0.83,0.24 1.31,0.24c0.26,0 0.53,-0.01 0.78,-0.07c0.25,-0.05 0.5,-0.12 0.73,-0.21c0.22,-0.08 0.43,-0.18 0.61,-0.31c0.19,-0.12 0.34,-0.25 0.45,-0.39l-0.18,-0.22c-0.03,-0.04 -0.08,-0.07 -0.14,-0.07c-0.04,0 -0.13,0.03 -0.22,0.11c-0.1,0.08 -0.24,0.17 -0.42,0.27c-0.17,0.09 -0.4,0.16 -0.65,0.25c-0.25,0.08 -0.56,0.12 -0.91,0.12c-0.39,0 -0.74,-0.07 -1.06,-0.21c-0.32,-0.14 -0.59,-0.33 -0.81,-0.6c-0.23,-0.26 -0.4,-0.6 -0.52,-0.99c-0.13,-0.39 -0.18,-0.87 -0.18,-1.39l0,-0.12l5.02,0c0.07,0 0.11,-0.02 0.14,-0.06c0.03,-0.04 0.06,-0.11 0.06,-0.21c0,-0.49 -0.07,-0.92 -0.21,-1.3c-0.14,-0.38 -0.32,-0.72 -0.58,-0.97c-0.23,-0.25 -0.53,-0.45 -0.86,-0.59c-0.34,-0.14 -0.7,-0.21 -1.1,-0.21zm0.02,0.51c0.32,0 0.6,0.05 0.87,0.17c0.26,0.11 0.49,0.26 0.67,0.47c0.18,0.21 0.33,0.45 0.43,0.74c0.1,0.3 0.16,0.63 0.16,1.01l-4.6,0c0.05,-0.36 0.13,-0.7 0.26,-0.99c0.12,-0.3 0.29,-0.55 0.5,-0.76c0.21,-0.21 0.46,-0.36 0.74,-0.47c0.28,-0.12 0.6,-0.17 0.97,-0.17zm16.69,0.39c-0.48,-0.59 -1.15,-0.9 -2.01,-0.9c-0.5,0 -0.96,0.13 -1.37,0.37c-0.4,0.24 -0.75,0.56 -1.06,0.96l-0.02,-4.43l-0.65,0l-1.01,0l0,0.28c0,0.15 0.08,0.23 0.26,0.25l0.09,0c0.03,0 0.05,0.01 0.1,0.01l0.21,0c0.09,0 0.22,0.02 0.35,0.02l0,8.97l0,0.35c1.23,0.27 2.15,0.39 2.78,0.39c0.49,0 0.93,-0.1 1.3,-0.28c0.38,-0.18 0.69,-0.43 0.96,-0.75c0.26,-0.33 0.44,-0.72 0.58,-1.15c0.14,-0.44 0.2,-0.93 0.2,-1.43c0,-1.19 -0.24,-2.07 -0.71,-2.66zm-0.13,3.92c-0.11,0.38 -0.27,0.71 -0.48,0.98c-0.21,0.28 -0.46,0.48 -0.77,0.63c-0.3,0.15 -0.67,0.22 -1.07,0.22c-0.37,0 -1.04,-0.09 -2.01,-0.29l0,-4.47c0.3,-0.42 0.63,-0.75 1.01,-0.99c0.38,-0.24 0.79,-0.36 1.25,-0.36c0.71,0 1.27,0.25 1.65,0.74c0.38,0.49 0.57,1.24 0.57,2.28c0,0.46 -0.04,0.88 -0.15,1.26zm28.43,-4.75c-0.22,-0.61 -0.54,-1.12 -0.96,-1.55c-0.42,-0.43 -0.91,-0.77 -1.49,-0.99c-0.57,-0.23 -1.23,-0.34 -1.93,-0.34l-3.43,0l-1.19,0l0,0.27c0,0.15 0.1,0.23 0.28,0.25l0.14,0c0.07,0 0.17,0.01 0.31,0.01c0.14,0 0.29,0.02 0.46,0.02l0,8.79c-0.17,0 -0.32,0.01 -0.46,0.01c-0.14,0 -0.24,0.02 -0.31,0.02l-0.14,0c-0.18,0.01 -0.28,0.09 -0.28,0.25l0,0.28l1.19,0l3.43,0c0.7,0 1.36,-0.11 1.93,-0.34c0.58,-0.22 1.07,-0.56 1.49,-0.99c0.42,-0.44 0.74,-0.95 0.96,-1.57c0.23,-0.62 0.35,-1.29 0.35,-2.06c0,-0.75 -0.12,-1.44 -0.35,-2.06zm-0.68,3.92c-0.2,0.55 -0.45,1 -0.8,1.38c-0.35,0.37 -0.77,0.65 -1.26,0.85c-0.49,0.2 -1.04,0.29 -1.64,0.29l-2.71,0l0,-8.75l2.71,0c0.6,0 1.15,0.1 1.64,0.3c0.49,0.19 0.91,0.47 1.26,0.85c0.35,0.38 0.6,0.83 0.8,1.37c0.19,0.55 0.29,1.17 0.29,1.85c0,0.7 -0.1,1.32 -0.29,1.86zm12.37,-3.99c-0.49,0 -0.93,0.1 -1.33,0.27c-0.39,0.17 -0.71,0.41 -0.98,0.71c-0.26,0.31 -0.47,0.68 -0.61,1.1c-0.14,0.42 -0.23,0.88 -0.23,1.38c0,0.59 0.09,1.12 0.24,1.58c0.16,0.47 0.37,0.84 0.65,1.17c0.28,0.32 0.61,0.56 1,0.72c0.4,0.17 0.83,0.24 1.31,0.24c0.26,0 0.53,-0.01 0.78,-0.07c0.25,-0.05 0.5,-0.12 0.73,-0.21c0.22,-0.08 0.43,-0.18 0.61,-0.31c0.19,-0.12 0.34,-0.25 0.45,-0.39l-0.18,-0.22c-0.03,-0.04 -0.08,-0.07 -0.14,-0.07c-0.04,0 -0.13,0.03 -0.22,0.11c-0.1,0.08 -0.24,0.17 -0.42,0.27c-0.17,0.09 -0.4,0.16 -0.65,0.25c-0.25,0.08 -0.56,0.12 -0.91,0.12c-0.39,0 -0.74,-0.07 -1.06,-0.21c-0.32,-0.14 -0.59,-0.33 -0.81,-0.6c-0.23,-0.26 -0.4,-0.6 -0.52,-0.99c-0.13,-0.39 -0.18,-0.87 -0.18,-1.39l0,-0.12l5.02,0c0.07,0 0.11,-0.02 0.14,-0.06c0.03,-0.04 0.06,-0.11 0.06,-0.21c0,-0.49 -0.07,-0.92 -0.21,-1.3c-0.14,-0.38 -0.32,-0.72 -0.58,-0.97c-0.23,-0.25 -0.53,-0.45 -0.86,-0.59c-0.34,-0.14 -0.7,-0.21 -1.1,-0.21zm0.02,0.51c0.32,0 0.6,0.05 0.87,0.17c0.26,0.11 0.49,0.26 0.67,0.47c0.18,0.21 0.33,0.45 0.43,0.74c0.1,0.3 0.16,0.63 0.16,1.01l-4.6,0c0.05,-0.36 0.13,-0.7 0.26,-0.99c0.12,-0.3 0.29,-0.55 0.5,-0.76c0.21,-0.21 0.46,-0.36 0.74,-0.47c0.28,-0.12 0.6,-0.17 0.97,-0.17zm17.36,-0.38l-0.52,0l-1.4,0l0,0.27c0,0.15 0.1,0.23 0.28,0.25l0.08,0c0.03,0 0.06,0.01 0.1,0.01l0.21,0c0.1,0 0.21,0.02 0.34,0.02l-2.14,5.11c-0.05,0.09 -0.09,0.21 -0.12,0.3c-0.02,0.1 -0.04,0.2 -0.07,0.3c-0.01,-0.03 -0.01,-0.07 -0.02,-0.14c-0.02,-0.07 -0.03,-0.13 -0.05,-0.16c-0.02,-0.09 -0.05,-0.19 -0.09,-0.3l-2.15,-5.11c0.16,0 0.31,-0.02 0.42,-0.02c0.12,0 0.2,-0.01 0.23,-0.01l0.08,0c0.18,-0.02 0.28,-0.1 0.28,-0.25l0,-0.27l-1.41,0l-0.52,0l-0.5,0l0,0.27c0,0.15 0.08,0.23 0.26,0.25c0,0 0.16,0 0.46,0.01l2.72,6.43l0.59,0l2.7,-6.43l0.27,0c0.08,0 0.12,-0.01 0.15,-0.01l0.07,0c0.18,-0.02 0.28,-0.1 0.28,-0.25l0,-0.27l-0.53,0zm11.44,-0.13c-0.49,0 -0.94,0.1 -1.33,0.27c-0.4,0.17 -0.72,0.41 -0.98,0.71c-0.27,0.31 -0.48,0.68 -0.62,1.1c-0.14,0.42 -0.22,0.88 -0.22,1.38c0,0.59 0.08,1.12 0.23,1.58c0.16,0.47 0.37,0.84 0.65,1.17c0.28,0.32 0.61,0.56 1.01,0.72c0.39,0.17 0.82,0.24 1.3,0.24c0.26,0 0.53,-0.01 0.78,-0.07c0.25,-0.05 0.51,-0.12 0.73,-0.21c0.22,-0.08 0.43,-0.18 0.62,-0.31c0.18,-0.12 0.33,-0.25 0.44,-0.39l-0.18,-0.22c-0.03,-0.04 -0.08,-0.07 -0.14,-0.07c-0.04,0 -0.12,0.03 -0.22,0.11c-0.1,0.08 -0.24,0.17 -0.42,0.27c-0.17,0.09 -0.39,0.16 -0.65,0.25c-0.25,0.08 -0.56,0.12 -0.91,0.12c-0.39,0 -0.74,-0.07 -1.06,-0.21c-0.32,-0.14 -0.59,-0.33 -0.81,-0.6c-0.23,-0.26 -0.39,-0.6 -0.52,-0.99c-0.13,-0.39 -0.18,-0.87 -0.18,-1.39l0,-0.12l5.02,0c0.07,0 0.12,-0.02 0.14,-0.06c0.03,-0.04 0.06,-0.11 0.06,-0.21c0,-0.49 -0.07,-0.92 -0.21,-1.3c-0.14,-0.38 -0.32,-0.72 -0.57,-0.97c-0.24,-0.25 -0.54,-0.45 -0.87,-0.59c-0.34,-0.14 -0.7,-0.21 -1.09,-0.21zm0.01,0.51c0.32,0 0.6,0.05 0.87,0.17c0.26,0.11 0.49,0.26 0.67,0.47c0.18,0.21 0.34,0.45 0.43,0.74c0.1,0.3 0.16,0.63 0.16,1.01l-4.59,0c0.04,-0.36 0.12,-0.7 0.25,-0.99c0.12,-0.3 0.29,-0.55 0.5,-0.76c0.21,-0.21 0.46,-0.36 0.74,-0.47c0.28,-0.12 0.61,-0.17 0.97,-0.17zm13.36,6.05l-0.07,0l-0.12,0c-0.04,0 -0.11,-0.02 -0.21,-0.02c-0.09,0 -0.21,-0.01 -0.33,-0.01l0,-9.63l-0.67,0l-1.01,0l0,0.28c0,0.15 0.1,0.23 0.28,0.25l0.07,0c0.03,0 0.07,0.01 0.11,0.01l0.21,0c0.1,0 0.21,0.02 0.34,0.02l0,9.07c-0.16,0 -0.3,0.03 -0.41,0.03l-0.24,0l-0.08,0c-0.18,0.01 -0.28,0.09 -0.28,0.25l0,0.28l1.01,0l0.67,0l1.01,0l0,-0.28c0,-0.16 -0.1,-0.24 -0.28,-0.25zm11.53,-6.56c-0.5,0 -0.95,0.1 -1.34,0.27c-0.39,0.17 -0.73,0.41 -1.01,0.71c-0.28,0.31 -0.48,0.69 -0.62,1.14c-0.14,0.45 -0.22,0.94 -0.22,1.48c0,0.55 0.08,1.04 0.22,1.47c0.14,0.44 0.34,0.83 0.62,1.14c0.28,0.3 0.62,0.54 1.01,0.71c0.39,0.17 0.84,0.25 1.34,0.25c0.51,0 0.94,-0.08 1.33,-0.25c0.39,-0.17 0.73,-0.41 1,-0.71c0.26,-0.31 0.49,-0.7 0.63,-1.14c0.14,-0.43 0.21,-0.92 0.21,-1.47c0,-0.54 -0.07,-1.03 -0.21,-1.48c-0.14,-0.45 -0.37,-0.83 -0.63,-1.14c-0.27,-0.3 -0.61,-0.54 -1,-0.71c-0.39,-0.17 -0.82,-0.27 -1.33,-0.27zm0,6.65c-0.42,0 -0.78,-0.07 -1.09,-0.21c-0.31,-0.14 -0.57,-0.35 -0.78,-0.61c-0.21,-0.27 -0.35,-0.59 -0.47,-0.97c-0.11,-0.38 -0.15,-0.8 -0.15,-1.26c0,-0.46 0.04,-0.88 0.15,-1.26c0.12,-0.38 0.26,-0.7 0.47,-0.96c0.21,-0.27 0.47,-0.49 0.78,-0.63c0.31,-0.14 0.67,-0.21 1.09,-0.21c0.42,0 0.77,0.07 1.08,0.21c0.31,0.14 0.57,0.36 0.78,0.63c0.21,0.26 0.37,0.58 0.47,0.96c0.09,0.38 0.15,0.8 0.15,1.26c0,0.46 -0.06,0.88 -0.15,1.26c-0.1,0.38 -0.26,0.7 -0.47,0.97c-0.21,0.26 -0.47,0.47 -0.78,0.61c-0.31,0.14 -0.66,0.21 -1.08,0.21zm17.11,-5.75c-0.48,-0.59 -1.15,-0.9 -2,-0.9c-0.52,0 -0.97,0.13 -1.39,0.38c-0.4,0.25 -0.77,0.58 -1.08,1l-0.07,-1.08c0,-0.07 -0.01,-0.11 -0.05,-0.14c-0.04,-0.03 -0.1,-0.03 -0.16,-0.03l-0.36,0l-1.01,0l0,0.27c0,0.15 0.1,0.23 0.28,0.25l0.07,0c0.03,0 0.07,0.01 0.11,0.01l0.21,0c0.1,0 0.21,0.02 0.34,0.02l0,8.31c-0.15,0 -0.29,0.03 -0.41,0.03l-0.23,0l-0.09,0c-0.18,0.01 -0.28,0.1 -0.28,0.25l0,0.28l1.01,0l0.67,0l1.01,0l0,-0.28c0,-0.15 -0.1,-0.24 -0.28,-0.25l-0.07,0l-0.11,0c-0.04,0 -0.11,-0.01 -0.21,-0.01c-0.1,0 -0.21,-0.02 -0.34,-0.02l0,-2.84c0.25,0.34 0.55,0.6 0.9,0.77c0.35,0.17 0.75,0.25 1.23,0.25c0.49,0 0.91,-0.1 1.29,-0.28c0.38,-0.18 0.7,-0.43 0.95,-0.75c0.25,-0.33 0.46,-0.72 0.59,-1.15c0.14,-0.44 0.19,-0.93 0.19,-1.43c0,-1.19 -0.23,-2.07 -0.71,-2.66zm-0.13,3.92c-0.09,0.38 -0.26,0.7 -0.47,0.98c-0.21,0.28 -0.46,0.48 -0.77,0.63c-0.31,0.15 -0.67,0.22 -1.08,0.22c-0.42,0 -0.78,-0.08 -1.11,-0.25c-0.32,-0.17 -0.61,-0.43 -0.88,-0.84l0,-3.65c0.3,-0.44 0.62,-0.77 1,-1.01c0.37,-0.24 0.79,-0.35 1.26,-0.35c0.71,0 1.26,0.24 1.63,0.73c0.38,0.49 0.58,1.24 0.58,2.28c0,0.46 -0.04,0.88 -0.16,1.26zm12.07,-4.82c-0.49,0 -0.94,0.1 -1.33,0.27c-0.39,0.17 -0.71,0.41 -0.98,0.71c-0.26,0.31 -0.47,0.68 -0.61,1.1c-0.14,0.42 -0.23,0.88 -0.23,1.38c0,0.59 0.09,1.12 0.24,1.58c0.15,0.47 0.36,0.84 0.64,1.17c0.28,0.32 0.62,0.56 1.01,0.72c0.39,0.17 0.83,0.24 1.3,0.24c0.27,0 0.54,-0.01 0.79,-0.07c0.25,-0.05 0.5,-0.12 0.73,-0.21c0.22,-0.08 0.43,-0.18 0.61,-0.31c0.18,-0.12 0.34,-0.25 0.45,-0.39l-0.18,-0.22c-0.03,-0.04 -0.09,-0.07 -0.14,-0.07c-0.04,0 -0.13,0.03 -0.23,0.11c-0.09,0.08 -0.23,0.17 -0.42,0.27c-0.16,0.09 -0.39,0.16 -0.64,0.25c-0.25,0.08 -0.56,0.12 -0.91,0.12c-0.39,0 -0.74,-0.07 -1.06,-0.21c-0.33,-0.14 -0.59,-0.33 -0.82,-0.6c-0.22,-0.26 -0.39,-0.6 -0.51,-0.99c-0.13,-0.39 -0.19,-0.87 -0.19,-1.39l0,-0.12l5.03,0c0.07,0 0.11,-0.02 0.14,-0.06c0.03,-0.04 0.06,-0.11 0.06,-0.21c0,-0.49 -0.07,-0.92 -0.21,-1.3c-0.14,-0.38 -0.33,-0.72 -0.58,-0.97c-0.24,-0.25 -0.53,-0.45 -0.87,-0.59c-0.33,-0.14 -0.7,-0.21 -1.09,-0.21zm0.02,0.51c0.32,0 0.6,0.05 0.86,0.17c0.27,0.11 0.49,0.26 0.68,0.47c0.18,0.21 0.33,0.45 0.43,0.74c0.1,0.3 0.15,0.63 0.15,1.01l-4.59,0c0.04,-0.36 0.13,-0.7 0.25,-0.99c0.13,-0.3 0.3,-0.55 0.51,-0.76c0.21,-0.21 0.46,-0.36 0.74,-0.47c0.28,-0.12 0.6,-0.17 0.97,-0.17zm15.48,-0.44c-0.18,-0.04 -0.36,-0.07 -0.57,-0.07c-0.55,0 -1.01,0.16 -1.39,0.48c-0.38,0.32 -0.67,0.77 -0.9,1.33l-0.05,-1.47c0,-0.08 -0.03,-0.14 -0.06,-0.17c-0.03,-0.03 -0.08,-0.04 -0.17,-0.04l-0.35,0l0,0l-1,0l0,0.27c0,0.18 0.09,0.23 0.26,0.25c0.09,0 0.17,0 0.74,0.03l0,5.85c-0.57,0.03 -0.65,0.03 -0.74,0.03c-0.17,0.01 -0.26,0.07 -0.26,0.25l0,0.28l1,0l0.66,0l0,0l1.01,0l0,-0.28c0,-0.18 -0.1,-0.24 -0.27,-0.25c-0.08,0 -0.16,0 -0.74,-0.03l0,-3.96c0.21,-0.62 0.49,-1.1 0.83,-1.42c0.33,-0.32 0.77,-0.49 1.3,-0.49c0.14,0 0.27,0.02 0.38,0.03c0.11,0.01 0.22,0.03 0.29,0.06c0.09,0.02 0.13,0.05 0.18,0.07c0.06,0.01 0.1,0.02 0.13,0.02c0.08,0 0.13,-0.04 0.14,-0.11l0.08,-0.46c-0.15,-0.08 -0.32,-0.15 -0.5,-0.2z"/>
   </g>
  </g>
 </g>
</svg>